<svg xmlns="http://www.w3.org/2000/svg" viewBox="0 0 138.47 147.99"><defs><style></style></defs><g id="Layer_2" data-name="Layer 2"><g id="Layer_1-2" data-name="Layer 1"><path class="cls-1" d="M53.85,0H84.69c17.8,48.9,35.64,97.87,53.78,147.7-7.66,0-14.61.05-21.56-.06-.76,0-1.61-.79-2.23-1.4-14.17-13.87-27.56-28.36-36.91-46.11-3.15-6-4.62-12.21-2.94-19.39l29.85,9.51V81.7L74.45,62.18c0-6.45,0-13,0-19.6,0-4.54-2.26-7.47-5.8-7.66-3.74-.19-6.39,2.74-6.47,7.51-.11,6.43,0,12.86,0,19.39l-31,19v8.53l30.05-8.83c.46,5.47.85,10.31-1.48,15.15-6.38,13.25-15.44,24.55-25.26,35.29-4.55,5-9.29,9.79-14.25,14.34A11.39,11.39,0,0,1,14,147.78c-4.27.39-8.59.11-13.95.11Z"/></g></g></svg>